# xmcd
#
# Track frame offsets:
# 150
# 14140
# 34562
# 54025
# 70755
# 87447
# 108425
# 128440
# 144500
# 163175
# 178900
# 199857
# 215582
# 243150
#
# Disc length: 3327 seconds
#
#
# Revision: 4
# Processed by: cddbd v1.5.2PL0 Copyright (c) Steve Scherf et al.
# Submitted via: FreeRIP 2.945 
#
DISCID=c10cfd0e
DTITLE=Hanson - This Time Around
DYEAR=2000
DGENRE=Pop
TTITLE0=You Never Know
TTITLE1=If Only
TTITLE2=This Time Around
TTITLE3=Runaway Run
TTITLE4=Save-me
TTITLE5=Dying To Be Alive
TTITLE6=Can't Stop
TTITLE7=Wish That I Was There
TTITLE8=Love Song
TTITLE9=Sure About It
TTITLE10=Hand In Hand
TTITLE11=In The City
TTITLE12=Hanson - A Song To Sing
TTITLE13=DATA
EXTD=Rip by: João antonio FM Müller
EXTT0=Itajai-SC, 20/01/2008
EXTT1=Itajai-SC, 20/01/2008
EXTT2=Itajai-SC, 20/01/2008
EXTT3=Itajai-SC, 20/01/2008
EXTT4=Itajai-SC, 20/01/2008
EXTT5=Itajai-SC, 20/01/2008
EXTT6=Itajai-SC, 20/01/2008
EXTT7=Itajai-SC, 20/01/2008
EXTT8=Itajai-SC, 20/01/2008
EXTT9=Itajai-SC, 20/01/2008
EXTT10=Itajai-SC, 20/01/2008
EXTT11=Itajai-SC, 20/01/2008
EXTT12=Itajai-SC, 20/01/2008
EXTT13=
PLAYORDER=
